# xmcd
#
# Track frame offsets: 
#        150
#        11033
#        30616
#        49526
#        69788
#        89218
#        108099
#        117558
#        136470
#        161580
#        183896
#        198522
#        218029
#        226420
#        241898
#        267057
#
# Disc length: 3826 seconds
#
# Revision: 0
# Processed by: cddbd v1.5.2PL0 Copyright (c) Steve Scherf et al.
# Submitted via: ExactAudioCopyFreeDBPlugin 1.0
#
DISCID=d70ef010
DTITLE=群星 - 试机17号
DYEAR=2010
DGENRE=Acid
TTITLE0=施特劳斯圆舞曲
TTITLE1=山楂树
TTITLE2=荷花颂
TTITLE3=让一切随风
TTITLE4=茉莉花开
TTITLE5=婚誓
TTITLE6=丰收
TTITLE7=想你的时候
TTITLE8=一意孤行
TTITLE9=橄榄树
TTITLE10=《四季》春天
TTITLE11=流星
TTITLE12=赛马
TTITLE13=人家的船儿浆成双
TTITLE14=回家
TTITLE15=酒红色的心
EXTD=
EXTT0=
EXTT1=
EXTT2=
EXTT3=
EXTT4=
EXTT5=
EXTT6=
EXTT7=
EXTT8=
EXTT9=
EXTT10=
EXTT11=
EXTT12=
EXTT13=
EXTT14=
EXTT15=
PLAYORDER=
